#tb 0: 1/25
0,          0,          0,        1,    38016, 0x3ae838ee
0,          1,          1,        1,    38016, 0x9ed7e141
0,          2,          2,        1,    38016, 0xaf9d9753
0,          3,          3,        1,    38016, 0x8a6f6906
0,          4,          4,        1,    38016, 0xcfe85810
0,          5,          5,        1,    38016, 0x00ed737f
0,          6,          6,        1,    38016, 0x93509e20
0,          7,          7,        1,    38016, 0xa02ba402
0,          8,          8,        1,    38016, 0xce09afd9
0,          9,          9,        1,    38016, 0xc7a49dcf
0,         10,         10,        1,    38016, 0x0da163c6
0,         11,         11,        1,    38016, 0xb3be2fcf
0,         12,         12,        1,    38016, 0x0d564479
0,         13,         13,        1,    38016, 0x5c554f55
0,         14,         14,        1,    38016, 0x05d06d25
0,         15,         15,        1,    38016, 0x352687bc
0,         16,         16,        1,    38016, 0x9e13b74d
0,         17,         17,        1,    38016, 0x1c3dd2af
0,         18,         18,        1,    38016, 0x3c1ad091
0,         19,         19,        1,    38016, 0x0461cad8
0,         20,         20,        1,    38016, 0xa002cc91
0,         21,         21,        1,    38016, 0x9c06d06e
0,         22,         22,        1,    38016, 0xfad0cee0
0,         23,         23,        1,    38016, 0x5cbbd4a5
0,         24,         24,        1,    38016, 0x9a99d463
0,         25,         25,        1,    38016, 0xa115d051
0,         26,         26,        1,    38016, 0x5b63cc22
0,         27,         27,        1,    38016, 0x53b3cfd2
0,         28,         28,        1,    38016, 0x7b22db61
0,         29,         29,        1,    38016, 0x4f28e319
0,         30,         30,        1,    38016, 0x4c6aa7c5
0,         31,         31,        1,    38016, 0xe2eb6bde
0,         32,         32,        1,    38016, 0xdfc84927
0,         33,         33,        1,    38016, 0xa0098eab
0,         34,         34,        1,    38016, 0x607a00e2
0,         35,         35,        1,    38016, 0x58da68d0
0,         36,         36,        1,    38016, 0x1290c8c6
0,         37,         37,        1,    38016, 0x40615120
0,         38,         38,        1,    38016, 0x070e9d9c
0,         39,         39,        1,    38016, 0x5295d213
0,         40,         40,        1,    38016, 0xaaa0f00a
0,         41,         41,        1,    38016, 0x0ef7f99d
0,         42,         42,        1,    38016, 0x018cf596
0,         43,         43,        1,    38016, 0xb9010555
0,         44,         44,        1,    38016, 0x54b10d05
0,         45,         45,        1,    38016, 0xa06ff53b
0,         46,         46,        1,    38016, 0x9a2ec1aa
0,         47,         47,        1,    38016, 0x75999938
0,         48,         48,        1,    38016, 0xda6ba315
0,         49,         49,        1,    38016, 0xaa38cc4e
0,         50,         50,        1,    38016, 0x87f6e751
0,         51,         51,        1,    38016, 0x2318c2b9
0,         52,         52,        1,    38016, 0xdebfd9c8
0,         53,         53,        1,    38016, 0xdc9a115f
0,         54,         54,        1,    38016, 0x6d1e495d
0,         55,         55,        1,    38016, 0x53d46db4
0,         56,         56,        1,    38016, 0x53287856
0,         57,         57,        1,    38016, 0x0ce93af7
0,         58,         58,        1,    38016, 0x44974b42
0,         59,         59,        1,    38016, 0x65a16170
0,         60,         60,        1,    38016, 0xeb8a3531
0,         61,         61,        1,    38016, 0x65da180b
0,         62,         62,        1,    38016, 0x6eb1cd77
0,         63,         63,        1,    38016, 0xc890b0c1
0,         64,         64,        1,    38016, 0x359ad301
0,         65,         65,        1,    38016, 0x4be2e140
0,         66,         66,        1,    38016, 0x5094da18
0,         67,         67,        1,    38016, 0x9ef9d904
0,         68,         68,        1,    38016, 0x0ad8cbb4
0,         69,         69,        1,    38016, 0xd68cb3db
0,         70,         70,        1,    38016, 0x7fcd9d3c
0,         71,         71,        1,    38016, 0x017385aa
0,         72,         72,        1,    38016, 0xa2328d96
0,         73,         73,        1,    38016, 0x18858630
0,         74,         74,        1,    38016, 0x795228e0
0,         75,         75,        1,    38016, 0xb70ce750
0,         76,         76,        1,    38016, 0x55d9da49
0,         77,         77,        1,    38016, 0x7714cc94
0,         78,         78,        1,    38016, 0xec39f711
0,         79,         79,        1,    38016, 0x561e4366
0,         80,         80,        1,    38016, 0xd91c83e0
0,         81,         81,        1,    38016, 0x8b3379e2
0,         82,         82,        1,    38016, 0xdee36b36
0,         83,         83,        1,    38016, 0x1b4940fd
0,         84,         84,        1,    38016, 0x9b13e7b2
0,         85,         85,        1,    38016, 0xb0b2f2eb
0,         86,         86,        1,    38016, 0x0e7c2373
0,         87,         87,        1,    38016, 0x87401fb0
0,         88,         88,        1,    38016, 0xc4bdb8be
0,         89,         89,        1,    38016, 0xbbfc4f40
0,         90,         90,        1,    38016, 0x1722db32
0,         91,         91,        1,    38016, 0xf7e8a749
0,         92,         92,        1,    38016, 0x8c66b366
0,         93,         93,        1,    38016, 0x9823f33e
0,         94,         94,        1,    38016, 0x5013240a
0,         95,         95,        1,    38016, 0xf174d83a
0,         96,         96,        1,    38016, 0xe49cae19
0,         97,         97,        1,    38016, 0xadc2f8f7
0,         98,         98,        1,    38016, 0x667961b0
0,         99,         99,        1,    38016, 0xcb6d9bcd
